# xmcd
#
# Track frame offsets: 
#        150
#        14330
#        27637
#        41389
#        55645
#        66935
#        80945
#        95382
#        110025
#        124657
#        137830
#        150110
#        164447
#        179007
#
# Disc length: 2576 seconds
#
# Revision: 2
# Processed by: cddbd v1.4PL0 Copyright (c) Steve Scherf et al.
# Submitted via: ExactAudioCopy v0.90b3
#
DISCID=bc0a0e0e
DTITLE=Blind Willie McTell - 1927-1933 The Early Years
DYEAR=1989
DGENRE=
TTITLE0=Broke Down Engine Blues
TTITLE1=Mama 'Tain't Long For Day
TTITLE2=Georgia Rag
TTITLE3=Love Changing Blues
TTITLE4=Statesboro Blues
TTITLE5=Stomp Down Rider
TTITLE6=Savannah Mama
TTITLE7=Travelin' Blues
TTITLE8=Drive Away Blues
TTITLE9=Warm It Up To Me
TTITLE10=Three Women Blues
TTITLE11=Writing Paper Blues
TTITLE12=Southern Can Is Mine
TTITLE13=Talkin' To Myself
EXTD=
EXTT0=
EXTT1=
EXTT2=
EXTT3=
EXTT4=
EXTT5=
EXTT6=
EXTT7=
EXTT8=
EXTT9=
EXTT10=
EXTT11=
EXTT12=
EXTT13=
PLAYORDER=
